<svg width="20" height="20" viewBox="0 0 20 20" fill="none" xmlns="http://www.w3.org/2000/svg">
<g clip-path="url(#clip0_1468_3407)">
<path fill-rule="evenodd" clip-rule="evenodd" d="M17.9334 7.65591C18.0617 7.65591 18.1834 7.71258 18.2659 7.80925C18.3056 7.85657 18.3341 7.91226 18.3492 7.97215C18.3644 8.03203 18.3658 8.09457 18.3534 8.15508L18.1117 9.28925C18.0907 9.38438 18.0375 9.46937 17.9612 9.52992C17.8848 9.59047 17.79 9.6229 17.6926 9.62174H17.1784C17.6717 10.1542 17.9076 10.8351 17.9051 11.5142C17.9065 11.9018 17.8258 12.2853 17.6682 12.6393C17.5107 12.9934 17.2798 13.3101 16.9909 13.5684V15.1251C16.988 15.2927 16.9189 15.4524 16.7987 15.5692C16.6785 15.686 16.5169 15.7504 16.3492 15.7484H14.8476C14.6799 15.7506 14.5181 15.6863 14.3979 15.5694C14.2776 15.4526 14.2085 15.2928 14.2059 15.1251V14.4867H5.79423V15.1251C5.7916 15.2928 5.72256 15.4526 5.60227 15.5694C5.48198 15.6863 5.32025 15.7506 5.15256 15.7484H3.65173C3.48404 15.7506 3.32231 15.6863 3.20202 15.5694C3.08173 15.4526 3.0127 15.2928 3.01006 15.1251V13.5376C3.00688 13.5346 3.00354 13.5318 3.00006 13.5292L2.99756 13.5276C2.99527 13.526 2.99305 13.5243 2.9909 13.5226C2.4109 13.0034 2.0934 12.2701 2.09673 11.4576C2.09565 10.7816 2.34265 10.1286 2.7909 9.62258H2.3084C2.21112 9.62362 2.11643 9.59125 2.04015 9.53089C1.96386 9.47053 1.91059 9.38582 1.88923 9.29091L1.64756 8.15591C1.63465 8.09528 1.63582 8.0325 1.65099 7.9724C1.66616 7.9123 1.69492 7.85648 1.73506 7.80925C1.77586 7.76088 1.82679 7.72207 1.88425 7.69558C1.94171 7.66908 2.00429 7.65554 2.06756 7.65591H3.69506C4.0984 6.62841 4.62006 5.61924 5.21506 5.23758C7.27256 3.92341 12.7292 3.92341 14.7867 5.23758C15.3817 5.61841 15.9051 6.62675 16.3067 7.65591H17.9334ZM14.0801 6.28008C12.4409 5.23091 7.56006 5.23091 5.92006 6.28008C5.60173 6.48341 5.19173 7.30425 4.81673 8.30841H15.1834C14.8084 7.30341 14.3984 6.48341 14.0801 6.28008ZM3.99923 11.6142C3.99923 10.9359 4.5659 10.3876 5.26256 10.3876C5.9609 10.3876 6.52673 10.9359 6.52673 11.6142C6.52673 12.2926 5.9609 12.8417 5.26256 12.8417C4.56506 12.8417 3.99923 12.2917 3.99923 11.6142ZM13.4909 11.6142C13.4909 12.2926 14.0576 12.8417 14.7551 12.8417C15.4526 12.8417 16.0184 12.2917 16.0184 11.6142C16.0184 10.9359 15.4534 10.3876 14.7542 10.3876C14.0576 10.3876 13.4909 10.9359 13.4909 11.6142Z" fill="white"/>
</g>
<defs>
<clipPath id="clip0_1468_3407">
<rect width="20" height="20" fill="white"/>
</clipPath>
</defs>
</svg>
