<svg width="24" height="24" viewBox="0 0 24 24" fill="none" xmlns="http://www.w3.org/2000/svg">
<path d="M9.33333 3.59105V17.1789M15.6667 6.70014V20.288M8.46509 3.23293L3.5723 6.07832C3.39824 6.17963 3.25378 6.32481 3.15336 6.49939C3.05294 6.67397 3.00006 6.87183 3 7.07323V19.148C2.99986 19.3506 3.05314 19.5496 3.15446 19.7249C3.25579 19.9003 3.40159 20.0458 3.57713 20.1469C3.75268 20.2479 3.95176 20.3008 4.1543 20.3004C4.35685 20.2999 4.55567 20.246 4.73073 20.1441L8.46509 17.9712C8.72876 17.8179 9.02833 17.7371 9.33333 17.7371C9.63834 17.7371 9.9379 17.8179 10.2016 17.9712L14.7984 20.645C15.0621 20.7983 15.3617 20.8791 15.6667 20.8791C15.9717 20.8791 16.2712 20.7983 16.5349 20.645L21.4277 17.7984C21.6018 17.6971 21.7462 17.552 21.8466 17.3774C21.9471 17.2028 21.9999 17.0049 22 16.8035V4.7299C22.0001 4.52736 21.9469 4.32836 21.8455 4.15299C21.7442 3.97761 21.5984 3.83207 21.4229 3.73104C21.2473 3.63001 21.0482 3.57707 20.8457 3.57756C20.6432 3.57805 20.4443 3.63196 20.2693 3.73384L16.5349 5.90675C16.2712 6.06006 15.9717 6.14083 15.6667 6.14083C15.3617 6.14083 15.0621 6.06006 14.7984 5.90675L10.2016 3.23408C9.9379 3.08076 9.63834 3 9.33333 3C9.02833 3 8.72876 3.07961 8.46509 3.23293Z" stroke="#090714" stroke-width="1.5" stroke-linejoin="round"/>
</svg>
