<svg width="20" height="20" viewBox="0 0 20 20" fill="none" xmlns="http://www.w3.org/2000/svg">
<path d="M10.0001 18.5716C14.734 18.5716 18.5716 14.734 18.5716 10.0001C18.5716 5.26627 14.734 1.42871 10.0001 1.42871C5.26627 1.42871 1.42871 5.26627 1.42871 10.0001C1.42871 14.734 5.26627 18.5716 10.0001 18.5716Z" fill="white" stroke="#C90509" stroke-width="0.346409"/>
<path d="M10.0151 17.9591C14.46 17.9591 18.0634 14.3815 18.0634 9.9683C18.0634 5.55512 14.46 1.97754 10.0151 1.97754C5.57014 1.97754 1.9668 5.55512 1.9668 9.9683C1.9668 14.3815 5.57014 17.9591 10.0151 17.9591Z" fill="white" stroke="#C90509" stroke-width="0.269275"/>
<path d="M3.09961 7.22314H8.1445L10.0138 9.13098L11.7985 7.22314H16.9249V12.7382H11.9379L10.0246 14.6894L8.03722 12.7382H3.1243L3.09961 7.22314Z" stroke="#C90509" stroke-width="0.692818"/>
<path d="M8.15442 12.468H3.37305L3.37305 7.49219H8.14237L10.0157 9.38828L11.8124 7.49219H16.6552V12.468H11.8327" fill="#C90509"/>
<path d="M8.15442 12.468H3.37305L3.37305 7.49219H8.14237L10.0157 9.38828L11.8124 7.49219H16.6552V12.468H11.8327" stroke="white" stroke-width="0.461879"/>
<path d="M11.832 12.468L10.0134 14.3073L8.15039 12.468L8.15374 12.0884L10.0135 13.9293L11.832 12.1139V12.468Z" stroke="white" stroke-width="0.346409"/>
<path d="M9.37264 12.9927L8.7334 12.3659L10.0112 12.3653L11.289 12.3647L11.1358 12.5212C11.0515 12.6073 10.7642 12.8896 10.4972 13.1486L10.0119 13.6195L9.37264 12.9927Z" fill="#C90509" stroke="#C90509" stroke-width="0.0577348"/>
</svg>
