<svg width="20" height="20" viewBox="0 0 20 20" fill="none" xmlns="http://www.w3.org/2000/svg">
<g clip-path="url(#clip0_1468_3044)">
<path d="M9.76152 4.6575C10.1567 4.64476 10.4882 4.49178 10.7559 4.19855C11.0236 3.90532 11.1511 3.56111 11.1384 3.16592C11.1256 2.77065 10.979 2.43283 10.6985 2.15241C10.4181 1.87195 10.0802 1.73809 9.68503 1.75083C9.28984 1.76357 8.95836 1.91655 8.69064 2.20978C8.42292 2.50301 8.28906 2.84722 8.28906 3.24241C8.28906 3.6376 8.43566 3.97546 8.72889 4.25592C9.02212 4.53637 9.36633 4.67023 9.76152 4.6575Z" fill="white"/>
<path d="M14.6025 9.49541L12.499 8.34804L10.7779 5.59435C10.4464 5.18639 10.0385 4.98242 9.55404 4.98242C9.22256 4.98242 8.90386 5.12267 8.5979 5.40312L5.99719 8.04207C5.9207 8.14407 5.86972 8.25881 5.84421 8.38628L5.5 11.3312V11.4077C5.5 11.5861 5.56376 11.7391 5.69123 11.8666C5.8187 11.9941 5.97168 12.0579 6.15018 12.0579C6.32867 12.0579 6.47526 11.9941 6.59 11.8666C6.70474 11.7391 6.77484 11.5989 6.80035 11.4459L7.06807 8.92172L7.98597 8.00383L7.14456 15.041L5.65298 18.3684C5.602 18.5214 5.57649 18.6613 5.57649 18.7892C5.57649 19.0692 5.67211 19.3055 5.86333 19.4968C6.05456 19.688 6.29042 19.7707 6.57088 19.7454C6.95333 19.7454 7.23379 19.5664 7.41228 19.2099L9.0186 15.6147C9.0186 15.5891 9.03133 15.5446 9.05684 15.4809C9.08239 15.417 9.1079 15.3596 9.13333 15.3088C9.15884 15.2577 9.17158 15.2067 9.17158 15.1558L9.36281 13.4347L11.0074 19.0952C11.1859 19.5541 11.5046 19.7708 11.9635 19.7454C12.2185 19.7454 12.4416 19.6497 12.6328 19.4585C12.824 19.2673 12.9197 19.031 12.9197 18.751C12.9197 18.725 12.9133 18.6936 12.9005 18.6553C12.8878 18.6171 12.8814 18.5851 12.8814 18.5597L10.5867 10.7193L10.8544 8.15681L11.5046 9.18944C11.5555 9.26593 11.6193 9.32969 11.6958 9.38067L13.9523 10.6428C14.1053 10.6938 14.2073 10.7193 14.2582 10.7193C14.4367 10.7193 14.5897 10.6492 14.7172 10.5089C14.8447 10.3686 14.9084 10.2093 14.9084 10.0308C14.9084 9.80137 14.8064 9.62288 14.6025 9.49541Z" fill="white"/>
</g>
<defs>
<clipPath id="clip0_1468_3044">
<rect width="18" height="19.5" fill="white" transform="translate(1 0.25)"/>
</clipPath>
</defs>
</svg>
